<?xml version="1.0" encoding="UTF-8"?>
<svg id="Layer_1" xmlns="http://www.w3.org/2000/svg" xmlns:xlink="http://www.w3.org/1999/xlink" version="1.1" viewBox="0 0 1000 400">
  <!-- Generator: Adobe Illustrator 30.1.0, SVG Export Plug-In . SVG Version: 2.1.1 Build 136)  -->
  <defs>
    <style>
      .st0 {
        fill: #fef3c7;
      }

      .st0, .st1, .st2, .st3, .st4, .st5, .st6, .st7, .st8, .st9, .st10 {
        isolation: isolate;
      }

      .st0, .st2, .st6, .st7, .st9, .st10 {
        font-family: ArialMT, Arial;
      }

      .st0, .st2, .st6, .st10 {
        font-size: 11px;
      }

      .st1, .st3, .st4, .st5, .st8 {
        font-family: Arial-BoldMT, Arial;
        font-weight: 700;
      }

      .st1, .st3, .st5, .st11 {
        fill: #fff;
      }

      .st1, .st4, .st8 {
        font-size: 14px;
      }

      .st12 {
        fill: url(#linear-gradient2);
      }

      .st13 {
        fill: url(#linear-gradient1);
      }

      .st14 {
        fill: url(#linear-gradient3);
      }

      .st15 {
        fill: url(#linear-gradient4);
      }

      .st2 {
        fill: #a7f3d0;
      }

      .st3 {
        font-size: 20px;
      }

      .st4 {
        fill: #34d399;
      }

      .st5 {
        font-size: 24px;
      }

      .st16 {
        fill: url(#linear-gradient);
      }

      .st17 {
        fill: #064e3b;
        stroke: #10b981;
      }

      .st17, .st18, .st19 {
        stroke-width: 2px;
      }

      .st6 {
        fill: #e0e7ff;
      }

      .st7 {
        fill: #94a3b8;
      }

      .st7, .st9 {
        font-size: 12px;
      }

      .st8 {
        fill: #cbd5e1;
      }

      .st9 {
        fill: #bbf7d0;
      }

      .st18 {
        stroke: #86efac;
      }

      .st18, .st20 {
        fill: none;
      }

      .st21 {
        fill: #4ade80;
      }

      .st22 {
        fill: #22c55e;
      }

      .st20 {
        stroke: #22c55e;
        stroke-width: 3px;
      }

      .st19 {
        fill: #0a0a0a;
        stroke: #4ade80;
      }

      .st10 {
        fill: #e9d5ff;
      }
    </style>
    <linearGradient id="linear-gradient" x1="78.92" y1="498.03" x2="79.92" y2="497.03" gradientTransform="translate(-78921 199213.23) scale(1000 -400)" gradientUnits="userSpaceOnUse">
      <stop offset="0" stop-color="#0f0f0f"/>
      <stop offset="1" stop-color="#1a1a2e"/>
    </linearGradient>
    <linearGradient id="linear-gradient1" x1="78.51" y1="496.89" x2="79.51" y2="495.89" gradientTransform="translate(-12521 34882.29) scale(160 -70)" gradientUnits="userSpaceOnUse">
      <stop offset="0" stop-color="#3b82f6"/>
      <stop offset="1" stop-color="#1d4ed8"/>
    </linearGradient>
    <linearGradient id="linear-gradient2" x1="78.51" y1="496.89" x2="79.51" y2="495.89" gradientTransform="translate(-12521 34967.29) scale(160 -70)" gradientUnits="userSpaceOnUse">
      <stop offset="0" stop-color="#8b5cf6"/>
      <stop offset="1" stop-color="#6d28d9"/>
    </linearGradient>
    <linearGradient id="linear-gradient3" x1="78.51" y1="496.89" x2="79.51" y2="495.89" gradientTransform="translate(-12521 35052.29) scale(160 -70)" gradientUnits="userSpaceOnUse">
      <stop offset="0" stop-color="#f59e0b"/>
      <stop offset="1" stop-color="#d97706"/>
    </linearGradient>
    <linearGradient id="linear-gradient4" x1="78.64" y1="497.79" x2="79.64" y2="496.79" gradientTransform="translate(-16981 99678.11) scale(220 -200)" gradientUnits="userSpaceOnUse">
      <stop offset="0" stop-color="#22c55e"/>
      <stop offset="1" stop-color="#16a34a"/>
    </linearGradient>
  </defs>
  <rect class="st16" y="0" width="1000" height="400" rx="16" ry="16"/>
  <text class="st5" transform="translate(355.32 40)"><tspan x="0" y="0">SYLVA AI Fusion Pipeline</tspan></text>
  <text class="st8" transform="translate(62.82 80)"><tspan x="0" y="0">SENSOR INPUTS</tspan></text>
  <rect class="st13" x="40" y="100" width="160" height="70" rx="12" ry="12"/>
  <text class="st1" transform="translate(65.92 130)"><tspan x="0" y="0">4K RGB Camera</tspan></text>
  <text class="st6" transform="translate(80.36 152)"><tspan x="0" y="0">Visual Detection</tspan></text>
  <rect class="st12" x="40" y="185" width="160" height="70" rx="12" ry="12"/>
  <text class="st1" transform="translate(76.82 215)"><tspan x="0" y="0">Multispectral</tspan></text>
  <text class="st10" transform="translate(78.73 237)"><tspan x="0" y="0">Material Analysis</tspan></text>
  <rect class="st14" x="40" y="270" width="160" height="70" rx="12" ry="12"/>
  <text class="st1" transform="translate(76.84 300)"><tspan x="0" y="0">LiDAR Depth</tspan></text>
  <text class="st0" transform="translate(90.34 322)"><tspan x="0" y="0">3D Mapping</tspan></text>
  <line class="st20" x1="200" y1="135" x2="300" y2="180"/>
  <polygon class="st22" points="300 172 320 180 300 188 300 172"/>
  <line class="st20" x1="200" y1="220" x2="300" y2="220"/>
  <polygon class="st22" points="300 212 320 220 300 228 300 212"/>
  <line class="st20" x1="200" y1="305" x2="300" y2="260"/>
  <polygon class="st22" points="300 252 320 260 300 268 300 252"/>
  <circle class="st21" cx="250" cy="158" r="6"/>
  <circle class="st21" cx="250" cy="220" r="6"/>
  <circle class="st21" cx="250" cy="282" r="6"/>
  <rect class="st15" x="320" y="120" width="220" height="200" rx="20" ry="20"/>
  <rect class="st19" x="335" y="135" width="190" height="170" rx="14" ry="14"/>
  <text class="st3" transform="translate(386.11 170)"><tspan x="0" y="0">SYLVA AI</tspan></text>
  <text class="st9" transform="translate(372.63 195)"><tspan x="0" y="0">Deep Learning Model</tspan></text>
  <circle class="st11" cx="370" cy="230" r="8"/>
  <circle class="st11" cx="370" cy="255" r="8"/>
  <circle class="st11" cx="370" cy="280" r="8"/>
  <circle class="st11" cx="410" cy="222" r="8"/>
  <circle class="st11" cx="410" cy="247" r="8"/>
  <circle class="st11" cx="410" cy="272" r="8"/>
  <circle class="st11" cx="410" cy="297" r="8"/>
  <circle class="st11" cx="450" cy="230" r="8"/>
  <circle class="st11" cx="450" cy="255" r="8"/>
  <circle class="st11" cx="450" cy="280" r="8"/>
  <circle class="st11" cx="490" cy="242" r="8"/>
  <circle class="st11" cx="490" cy="267" r="8"/>
  <line class="st18" x1="378" y1="230" x2="402" y2="222"/>
  <line class="st18" x1="378" y1="230" x2="402" y2="247"/>
  <line class="st18" x1="378" y1="255" x2="402" y2="247"/>
  <line class="st18" x1="378" y1="255" x2="402" y2="272"/>
  <line class="st18" x1="378" y1="280" x2="402" y2="272"/>
  <line class="st18" x1="378" y1="280" x2="402" y2="297"/>
  <line class="st18" x1="418" y1="222" x2="442" y2="230"/>
  <line class="st18" x1="418" y1="247" x2="442" y2="255"/>
  <line class="st18" x1="418" y1="272" x2="442" y2="280"/>
  <line class="st18" x1="418" y1="297" x2="442" y2="280"/>
  <line class="st18" x1="458" y1="242" x2="482" y2="242"/>
  <line class="st18" x1="458" y1="267" x2="482" y2="267"/>
  <line class="st20" x1="540" y1="170" x2="610" y2="122"/>
  <polygon class="st22" points="610 114 630 122 610 130 610 114"/>
  <line class="st20" x1="540" y1="200" x2="610" y2="187"/>
  <polygon class="st22" points="610 179 630 187 610 195 610 179"/>
  <line class="st20" x1="540" y1="240" x2="610" y2="252"/>
  <polygon class="st22" points="610 244 630 252 610 260 610 244"/>
  <line class="st20" x1="540" y1="270" x2="610" y2="317"/>
  <polygon class="st22" points="610 309 630 317 610 325 610 309"/>
  <circle class="st21" cx="575" cy="145" r="6"/>
  <circle class="st21" cx="575" cy="193" r="6"/>
  <circle class="st21" cx="575" cy="246" r="6"/>
  <circle class="st21" cx="575" cy="294" r="6"/>
  <text class="st8" transform="translate(717.61 80)"><tspan x="0" y="0">AI OUTPUTS</tspan></text>
  <rect class="st17" x="630" y="95" width="230" height="55" rx="10" ry="10"/>
  <text class="st4" transform="translate(713.11 120)"><tspan x="0" y="0">Detection</tspan></text>
  <text class="st2" transform="translate(681.32 138)"><tspan x="0" y="0">Trash type &amp; classification</tspan></text>
  <rect class="st17" x="630" y="160" width="230" height="55" rx="10" ry="10"/>
  <text class="st4" transform="translate(701.06 185)"><tspan x="0" y="0">Triangulation</tspan></text>
  <text class="st2" transform="translate(703.42 203)"><tspan x="0" y="0">GPS coordinates</tspan></text>
  <rect class="st17" x="630" y="225" width="230" height="55" rx="10" ry="10"/>
  <text class="st4" transform="translate(692.49 250)"><tspan x="0" y="0">Priority Scoring</tspan></text>
  <text class="st2" transform="translate(703.43 268)"><tspan x="0" y="0">Risk assessment</tspan></text>
  <rect class="st17" x="630" y="290" width="230" height="55" rx="10" ry="10"/>
  <text class="st4" transform="translate(715.43 315)"><tspan x="0" y="0">Heatmap</tspan></text>
  <text class="st2" transform="translate(692.72 333)"><tspan x="0" y="0">Pollution density map</tspan></text>
  <text class="st7" transform="translate(358.09 380)"><tspan x="0" y="0">Multi-sensor fusion enables &gt;90% detection accuracy</tspan></text>
</svg>