<svg xmlns="http://www.w3.org/2000/svg" viewBox="0 0 64 64" fill="none">
  <circle cx="32" cy="32" r="30" fill="#0f172a" stroke="#f59e0b" stroke-width="2"/>
  <!-- Brain/Neural network representation -->
  <circle cx="32" cy="24" r="4" fill="#f59e0b"/>
  <circle cx="22" cy="32" r="4" fill="#f59e0b"/>
  <circle cx="42" cy="32" r="4" fill="#f59e0b"/>
  <circle cx="27" cy="42" r="4" fill="#f59e0b"/>
  <circle cx="37" cy="42" r="4" fill="#f59e0b"/>
  <!-- Connections -->
  <line x1="32" y1="28" x2="24" y2="30" stroke="#3b82f6" stroke-width="1.5"/>
  <line x1="32" y1="28" x2="40" y2="30" stroke="#3b82f6" stroke-width="1.5"/>
  <line x1="24" y1="34" x2="28" y2="40" stroke="#3b82f6" stroke-width="1.5"/>
  <line x1="40" y1="34" x2="36" y2="40" stroke="#3b82f6" stroke-width="1.5"/>
  <line x1="30" y1="42" x2="34" y2="42" stroke="#3b82f6" stroke-width="1.5"/>
  <!-- Scan lines -->
  <path d="M 18 18 L 24 18 L 24 24" fill="none" stroke="#22c55e" stroke-width="1.5"/>
  <path d="M 46 18 L 40 18 L 40 24" fill="none" stroke="#22c55e" stroke-width="1.5"/>
  <path d="M 18 46 L 24 46 L 24 40" fill="none" stroke="#22c55e" stroke-width="1.5"/>
  <path d="M 46 46 L 40 46 L 40 40" fill="none" stroke="#22c55e" stroke-width="1.5"/>
</svg>