<?xml version="1.0" encoding="UTF-8"?>
<svg xmlns="http://www.w3.org/2000/svg" viewBox="0 0 146.57 146.57">
  <defs>
    <style>
      .st0 { fill: #51ab5a; }
      .st1 { fill: #fff; }
    </style>
  </defs>
  <rect class="st0" width="146.57" height="146.57" rx="20" ry="20"/>
  <g transform="translate(-183.4, -124.18)">
    <path class="st1" d="M200.23,207.7c.37,0,.59-.37.88-.51,1.54-.76,2.78-2.22,4.42-3.26.9-.57,1.64-.62,2.63-.39.16.04.13.36.25.39,4.97,1.36,10.3,3.47,15.63,4.81,4.27,1.07,4.5,1.36,8.34-1.1,5.19-3.33,10.37-8.78,15.62-12.55.16-.11.13-.79.65-.39l-.02-.67c-.19-.04-.41-.03-.57-.16-2.99-2.58-6.34-4.43-9.49-6.73-8.41-6.14-18.05-12.39-26.26-19.02-.08-.06-.63.09-.76-.45-.09-.46,1.92-1.81,2.35-2.15.38-.3.83-.65,1.2-.92,2.2-1.62,2.92-2.84,5.72-2.24,4.59.98,9.48,2.73,13.86,3.97,6.6,1.87,13.04,3.7,19.41,5.51,4.94,1.41,9.88,2.91,14.82,4.29,1.13-1.42,2.69-2.66,4.07-3.87,5.97-5.27,11.55-10.74,17.95-15.46,1.96-1.44,4.01-3.26,6.45-4.29,3.14-1.32,6.58-1.98,9.87-.97.27.08.29.42.32.43.14.06.4-.16.7,0,.88.48,2.24,1.8,2.58,2.85.24.75.37,2.29.29,3.09-.05.54-.64,2.66-.84,3.22-3.24,9.21-18.1,20.89-25.06,26.84-2,1.71-2.27,1.33-3.15,4.23-.13.42-.15.35-.3,1.05-.66,3-.95,6.83-1.75,9.61-.1.34-.19.65-.44.88-2.54,1.04-5.08,2.06-7.62,3.09-.4.16-.68.28-1.03.42-2.5.98-5.02,1.89-7.49,2.97-.46-.26-.11-.69-.14-.8,0-.03-.2-.5-.22-.52-.87-1.31-1.65-1.64-3.07-1.39-.19.03-2.39,1.78-3.12,2.15-6.14,3.14-13.43,7.13-20.47,10.56-1.96.96-4.04,1.84-5.79,2.83-.62.35-1.96.87-2.43,1.3-.25.23-.2.53-.34.78-.44.73-.15.42-.36,1-1.37,3.65-2.52,6.97-3.81,10.46-.23.61-.58,1.25-.86,1.84-.73.35-1.35.94-2.09,1.32-.27.14-.59.26-.87.4-.37.18-.8.13-1.08.46h-.2c-.62-.39-.6-.9-.74-1.58-.73-3.44-1.03-7.96-1.45-11.55-.14-1.2-.25-5.29-.82-5.95-.23-.26-.66-.31-.97-.57-3.52-3.06-6.91-6.06-10.38-9.12-1.35-1.19-2.48-2.62-3.99-3.47v-.7Z"/>
    <g>
      <path class="st1" d="M254.17,239.09c-.11-8.83,3.35-17.64,10.19-22.27,2.51-1.7,5.52-3.09,8.37-4.41l.21.07.06-.18.21.07c.14-.31.9-.33,1.14-.63l.21.07c3.62-1.78,8.35-3.18,11.59-5.93,1.08-.92,3.16-2.78,3.63-4.12.24-.69.36-.07.46.28,2.38,8.11,1,18.86-2.54,25.67-2.36,4.52-6.13,8.31-10.09,10.47-1.68.91-3.97,1.83-6.1,2.29-6.05,1.3-11.19-.39-16.48,3.12-.03.02-.26.57-.52.19-.12-.17-.11-1.95-.15-2.35-.01-.13-.11-.22-.11-.24-.04-.69-.09-1.4-.1-2.09ZM258.1,242.86c.42-.94.79-1.91,1.25-2.83,2.1-4.3,5.3-8.09,8.63-11.33,4.75-4.63,10.12-7.98,13.38-14.22.06-.11.33-.63.25-.7-4.71,5.88-11.41,9.27-16.51,14.66-3.66,3.87-6.71,8.65-7,14.41Z"/>
    </g>
    <polygon class="st1" points="263.44 210.24 263.44 214.17 280.14 207.23 281.22 196.35 263.44 210.24"/>
  </g>
</svg>
